<?xml version="1.0" standalone="no"?>
<!DOCTYPE svg PUBLIC "-//W3C//DTD SVG 1.1//EN" "http://www.w3.org/Graphics/SVG/1.1/DTD/svg11.dtd">
<svg xmlns:xlink="http://www.w3.org/1999/xlink" width="57.91ex" height="4.843ex" style="vertical-align: -1.838ex;" viewBox="0 -1293.7 24933.3 2085" xmlns="http://www.w3.org/2000/svg">
<defs>
<path stroke-width="10" id="E1-MJMAINI-48" d="M61 0Q54 7 54 11Q54 27 61 41Q65 46 95 46Q131 47 142 50T159 62Q161 66 230 344T300 626Q300 627 300 629L299 631Q293 637 238 637H220Q214 642 214 645T216 664Q220 677 226 683H239Q307 681 372 681Q480 681 486 683H496Q502 677 502 674T500 656Q496 643 490 637H472Q418 637 406 630Q400 627 396 612T367 500Q360 474 352 442T340 395L336 380Q336 378 466 378H596Q657 622 657 626Q657 627 656 629V631Q650 637 595 637H577Q571 642 571 645T573 664Q577 677 583 683H596Q664 681 729 681Q837 681 843 683H853Q860 676 860 672Q858 647 848 637H819Q783 636 772 634T756 623Q753 618 684 340T614 57Q614 50 621 49T666 46Q697 46 699 40Q701 37 698 21Q693 3 689 1Q686 0 677 0Q673 0 657 0T611 1T546 2Q453 2 428 0H418Q411 7 411 11Q411 27 418 41Q422 46 452 46Q488 47 499 50T516 62Q517 64 550 196T584 331Q584 332 454 332H324L291 197Q257 64 257 56Q257 50 265 49T309 46Q340 46 342 40Q344 37 341 21Q336 3 332 1Q329 0 320 0Q316 0 300 0T254 1T189 2Q96 2 71 0H61Z"></path>
<path stroke-width="10" id="E1-MJMAINI-4D" d="M72 1Q58 1 58 11Q58 33 66 41Q68 46 87 46Q150 50 168 84Q172 91 238 356T304 626Q304 627 304 629L303 631Q297 637 242 637H224Q218 642 218 645T220 664Q224 677 230 683H326H394Q417 683 422 682T429 676L480 127L502 163Q523 199 560 262T642 400Q801 668 805 676L817 683H1003Q1010 678 1010 672Q1010 650 997 637H979Q915 637 906 623Q903 618 834 340T764 57Q764 50 771 49T817 46H845Q851 38 851 37T848 19Q845 7 838 0H824Q789 2 701 2Q670 2 644 2T603 2T584 1Q569 1 569 11Q569 13 571 25Q576 42 581 45L586 46Q590 46 597 46T611 46Q646 47 657 50T674 62L813 616L634 313Q453 7 452 7Q446 0 428 0Q409 0 407 6Q405 10 379 304T351 604L285 348Q220 83 220 82Q220 65 233 57T279 46H295Q301 38 301 37T298 19Q295 7 288 0H275Q244 2 171 2Q145 2 123 2T88 2T72 1Z"></path>
<path stroke-width="10" id="E1-MJMAINI-41" d="M85 46Q112 48 132 56T161 73T176 92T185 104Q185 106 353 407T524 709Q527 716 551 716Q568 716 572 712Q573 711 574 710Q576 708 594 384Q613 54 617 52H618Q626 46 672 46H689Q696 41 696 36Q696 13 683 0H670Q639 2 557 2Q526 2 500 2T459 2T441 1Q425 1 425 10Q425 12 427 24Q428 27 429 31T430 36T432 40T434 43T437 45T443 46T450 46Q514 46 514 69Q514 74 511 136L506 209H292L260 152Q222 84 222 74Q222 48 264 46Q280 46 280 35Q280 33 278 21Q275 7 272 4T259 0Q256 0 232 1T159 2Q135 2 109 1T78 0Q58 0 58 10Q58 14 61 26T66 40Q68 46 85 46ZM504 260Q503 263 496 407T486 553L466 520Q446 486 402 406L318 256Q318 255 411 255H504V260Z"></path>
<path stroke-width="10" id="E1-MJMAINI-43" d="M395 -21Q279 -21 215 56T150 244Q150 402 265 543Q339 630 421 667T562 704Q596 704 604 703Q627 698 647 689T679 669T699 649T711 633T716 627L753 665Q790 704 792 704Q793 705 798 705Q812 705 812 698Q812 694 780 561Q744 422 744 421Q742 416 739 415T721 413H705Q699 419 699 426Q701 432 701 444Q705 464 705 493Q705 524 700 551T681 604T643 644T583 659Q480 659 387 570Q321 502 287 397T252 213Q252 123 297 74Q347 24 421 24Q500 24 564 89T653 240Q656 253 659 255T677 257Q700 257 700 248Q700 242 694 222Q681 183 656 143T593 65T504 3T395 -21Z"></path>
<path stroke-width="10" id="E1-MJMAIN-28" d="M94 250Q94 319 104 381T127 488T164 576T202 643T244 695T277 729T302 750H315H319Q333 750 333 741Q333 738 316 720T275 667T226 581T184 443T167 250T184 58T225 -81T274 -167T316 -220T333 -241Q333 -250 318 -250H315H302L274 -226Q180 -141 137 -14T94 250Z"></path>
<path stroke-width="10" id="E1-MJMATHI-4B" d="M285 628Q285 635 228 637Q205 637 198 638T191 647Q191 649 193 661Q199 681 203 682Q205 683 214 683H219Q260 681 355 681Q389 681 418 681T463 682T483 682Q500 682 500 674Q500 669 497 660Q496 658 496 654T495 648T493 644T490 641T486 639T479 638T470 637T456 637Q416 636 405 634T387 623L306 305Q307 305 490 449T678 597Q692 611 692 620Q692 635 667 637Q651 637 651 648Q651 650 654 662T659 677Q662 682 676 682Q680 682 711 681T791 680Q814 680 839 681T869 682Q889 682 889 672Q889 650 881 642Q878 637 862 637Q787 632 726 586Q710 576 656 534T556 455L509 418L518 396Q527 374 546 329T581 244Q656 67 661 61Q663 59 666 57Q680 47 717 46H738Q744 38 744 37T741 19Q737 6 731 0H720Q680 3 625 3Q503 3 488 0H478Q472 6 472 9T474 27Q478 40 480 43T491 46H494Q544 46 544 71Q544 75 517 141T485 216L427 354L359 301L291 248L268 155Q245 63 245 58Q245 51 253 49T303 46H334Q340 37 340 35Q340 19 333 5Q328 0 317 0Q314 0 280 1T180 2Q118 2 85 2T49 1Q31 1 31 11Q31 13 34 25Q38 41 42 43T65 46Q92 46 125 49Q139 52 144 61Q147 65 216 339T285 628Z"></path>
<path stroke-width="10" id="E1-MJMAIN-2C" d="M78 35T78 60T94 103T137 121Q165 121 187 96T210 8Q210 -27 201 -60T180 -117T154 -158T130 -185T117 -194Q113 -194 104 -185T95 -172Q95 -168 106 -156T131 -126T157 -76T173 -3V9L172 8Q170 7 167 6T161 3T152 1T140 0Q113 0 96 17Z"></path>
<path stroke-width="10" id="E1-MJMATHI-6D" d="M21 287Q22 293 24 303T36 341T56 388T88 425T132 442T175 435T205 417T221 395T229 376L231 369Q231 367 232 367L243 378Q303 442 384 442Q401 442 415 440T441 433T460 423T475 411T485 398T493 385T497 373T500 364T502 357L510 367Q573 442 659 442Q713 442 746 415T780 336Q780 285 742 178T704 50Q705 36 709 31T724 26Q752 26 776 56T815 138Q818 149 821 151T837 153Q857 153 857 145Q857 144 853 130Q845 101 831 73T785 17T716 -10Q669 -10 648 17T627 73Q627 92 663 193T700 345Q700 404 656 404H651Q565 404 506 303L499 291L466 157Q433 26 428 16Q415 -11 385 -11Q372 -11 364 -4T353 8T350 18Q350 29 384 161L420 307Q423 322 423 345Q423 404 379 404H374Q288 404 229 303L222 291L189 157Q156 26 151 16Q138 -11 108 -11Q95 -11 87 -5T76 7T74 17Q74 30 112 181Q151 335 151 342Q154 357 154 369Q154 405 129 405Q107 405 92 377T69 316T57 280Q55 278 41 278H27Q21 284 21 287Z"></path>
<path stroke-width="10" id="E1-MJMAIN-29" d="M60 749L64 750Q69 750 74 750H86L114 726Q208 641 251 514T294 250Q294 182 284 119T261 12T224 -76T186 -143T145 -194T113 -227T90 -246Q87 -249 86 -250H74Q66 -250 63 -250T58 -247T55 -238Q56 -237 66 -225Q221 -64 221 250T66 725Q56 737 55 738Q55 746 60 749Z"></path>
<path stroke-width="10" id="E1-MJMAIN-3D" d="M56 347Q56 360 70 367H707Q722 359 722 347Q722 336 708 328L390 327H72Q56 332 56 347ZM56 153Q56 168 72 173H708Q722 163 722 153Q722 140 707 133H70Q56 140 56 153Z"></path>
<path stroke-width="10" id="E1-MJMATHI-48" d="M228 637Q194 637 192 641Q191 643 191 649Q191 673 202 682Q204 683 219 683Q260 681 355 681Q389 681 418 681T463 682T483 682Q499 682 499 672Q499 670 497 658Q492 641 487 638H485Q483 638 480 638T473 638T464 637T455 637Q416 636 405 634T387 623Q384 619 355 500Q348 474 340 442T328 395L324 380Q324 378 469 378H614L615 381Q615 384 646 504Q674 619 674 627T617 637Q594 637 587 639T580 648Q580 650 582 660Q586 677 588 679T604 682Q609 682 646 681T740 680Q802 680 835 681T871 682Q888 682 888 672Q888 645 876 638H874Q872 638 869 638T862 638T853 637T844 637Q805 636 794 634T776 623Q773 618 704 340T634 58Q634 51 638 51Q646 48 692 46H723Q729 38 729 37T726 19Q722 6 716 0H701Q664 2 567 2Q533 2 504 2T458 2T437 1Q420 1 420 10Q420 15 423 24Q428 43 433 45Q437 46 448 46H454Q481 46 514 49Q520 50 522 50T528 55T534 64T540 82T547 110T558 153Q565 181 569 198Q602 330 602 331T457 332H312L279 197Q245 63 245 58Q245 51 253 49T303 46H334Q340 38 340 37T337 19Q333 6 327 0H312Q275 2 178 2Q144 2 115 2T69 2T48 1Q31 1 31 10Q31 12 34 24Q39 43 44 45Q48 46 59 46H65Q92 46 125 49Q139 52 144 61Q147 65 216 339T285 628Q285 635 228 637Z"></path>
<path stroke-width="10" id="E1-MJSZ2-28" d="M180 96T180 250T205 541T266 770T353 944T444 1069T527 1150H555Q561 1144 561 1141Q561 1137 545 1120T504 1072T447 995T386 878T330 721T288 513T272 251Q272 133 280 56Q293 -87 326 -209T399 -405T475 -531T536 -609T561 -640Q561 -643 555 -649H527Q483 -612 443 -568T353 -443T266 -270T205 -41Z"></path>
<path stroke-width="10" id="E1-MJMAIN-2032" d="M79 43Q73 43 52 49T30 61Q30 68 85 293T146 528Q161 560 198 560Q218 560 240 545T262 501Q262 496 260 486Q259 479 173 263T84 45T79 43Z"></path>
<path stroke-width="10" id="E1-MJMAIN-2295" d="M56 250Q56 394 156 488T384 583Q530 583 626 485T722 250Q722 110 625 14T390 -83Q249 -83 153 14T56 250ZM364 542Q308 539 251 509T148 418T96 278V270H369V542H364ZM681 278Q675 338 650 386T592 462T522 509T458 535T412 542H409V270H681V278ZM96 222Q104 150 139 95T219 12T302 -29T366 -42H369V230H96V222ZM681 222V230H409V-42H412Q429 -42 456 -36T521 -10T590 37T649 113T681 222Z"></path>
<path stroke-width="10" id="E1-MJMATHI-6F" d="M201 -11Q126 -11 80 38T34 156Q34 221 64 279T146 380Q222 441 301 441Q333 441 341 440Q354 437 367 433T402 417T438 387T464 338T476 268Q476 161 390 75T201 -11ZM121 120Q121 70 147 48T206 26Q250 26 289 58T351 142Q360 163 374 216T388 308Q388 352 370 375Q346 405 306 405Q243 405 195 347Q158 303 140 230T121 120Z"></path>
<path stroke-width="10" id="E1-MJMATHI-70" d="M23 287Q24 290 25 295T30 317T40 348T55 381T75 411T101 433T134 442Q209 442 230 378L240 387Q302 442 358 442Q423 442 460 395T497 281Q497 173 421 82T249 -10Q227 -10 210 -4Q199 1 187 11T168 28L161 36Q160 35 139 -51T118 -138Q118 -144 126 -145T163 -148H188Q194 -155 194 -157T191 -175Q188 -187 185 -190T172 -194Q170 -194 161 -194T127 -193T65 -192Q-5 -192 -24 -194H-32Q-39 -187 -39 -183Q-37 -156 -26 -148H-6Q28 -147 33 -136Q36 -130 94 103T155 350Q156 355 156 364Q156 405 131 405Q109 405 94 377T71 316T59 280Q57 278 43 278H29Q23 284 23 287ZM178 102Q200 26 252 26Q282 26 310 49T356 107Q374 141 392 215T411 325V331Q411 405 350 405Q339 405 328 402T306 393T286 380T269 365T254 350T243 336T235 326L232 322Q232 321 229 308T218 264T204 212Q178 106 178 102Z"></path>
<path stroke-width="10" id="E1-MJMATHI-61" d="M33 157Q33 258 109 349T280 441Q331 441 370 392Q386 422 416 422Q429 422 439 414T449 394Q449 381 412 234T374 68Q374 43 381 35T402 26Q411 27 422 35Q443 55 463 131Q469 151 473 152Q475 153 483 153H487Q506 153 506 144Q506 138 501 117T481 63T449 13Q436 0 417 -8Q409 -10 393 -10Q359 -10 336 5T306 36L300 51Q299 52 296 50Q294 48 292 46Q233 -10 172 -10Q117 -10 75 30T33 157ZM351 328Q351 334 346 350T323 385T277 405Q242 405 210 374T160 293Q131 214 119 129Q119 126 119 118T118 106Q118 61 136 44T179 26Q217 26 254 59T298 110Q300 114 325 217T351 328Z"></path>
<path stroke-width="10" id="E1-MJMATHI-64" d="M366 683Q367 683 438 688T511 694Q523 694 523 686Q523 679 450 384T375 83T374 68Q374 26 402 26Q411 27 422 35Q443 55 463 131Q469 151 473 152Q475 153 483 153H487H491Q506 153 506 145Q506 140 503 129Q490 79 473 48T445 8T417 -8Q409 -10 393 -10Q359 -10 336 5T306 36L300 51Q299 52 296 50Q294 48 292 46Q233 -10 172 -10Q117 -10 75 30T33 157Q33 205 53 255T101 341Q148 398 195 420T280 442Q336 442 364 400Q369 394 369 396Q370 400 396 505T424 616Q424 629 417 632T378 637H357Q351 643 351 645T353 664Q358 683 366 683ZM352 326Q329 405 277 405Q242 405 210 374T160 293Q131 214 119 129Q119 126 119 118T118 106Q118 61 136 44T179 26Q233 26 290 98L298 109L352 326Z"></path>
<path stroke-width="10" id="E1-MJMAIN-7C" d="M139 -249H137Q125 -249 119 -235V251L120 737Q130 750 139 750Q152 750 159 735V-235Q151 -249 141 -249H139Z"></path>
<path stroke-width="10" id="E1-MJSZ1-28" d="M152 251Q152 646 388 850H416Q422 844 422 841Q422 837 403 816T357 753T302 649T255 482T236 250Q236 124 255 19T301 -147T356 -251T403 -315T422 -340Q422 -343 416 -349H388Q359 -325 332 -296T271 -213T212 -97T170 56T152 251Z"></path>
<path stroke-width="10" id="E1-MJMATHI-69" d="M184 600Q184 624 203 642T247 661Q265 661 277 649T290 619Q290 596 270 577T226 557Q211 557 198 567T184 600ZM21 287Q21 295 30 318T54 369T98 420T158 442Q197 442 223 419T250 357Q250 340 236 301T196 196T154 83Q149 61 149 51Q149 26 166 26Q175 26 185 29T208 43T235 78T260 137Q263 149 265 151T282 153Q302 153 302 143Q302 135 293 112T268 61T223 11T161 -11Q129 -11 102 10T74 74Q74 91 79 106T122 220Q160 321 166 341T173 380Q173 404 156 404H154Q124 404 99 371T61 287Q60 286 59 284T58 281T56 279T53 278T49 278T41 278H27Q21 284 21 287Z"></path>
<path stroke-width="10" id="E1-MJSZ1-29" d="M305 251Q305 -145 69 -349H56Q43 -349 39 -347T35 -338Q37 -333 60 -307T108 -239T160 -136T204 27T221 250T204 473T160 636T108 740T60 807T35 839Q35 850 50 850H56H69Q197 743 256 566Q305 425 305 251Z"></path>
<path stroke-width="10" id="E1-MJSZ2-29" d="M35 1138Q35 1150 51 1150H56H69Q113 1113 153 1069T243 944T330 771T391 541T416 250T391 -40T330 -270T243 -443T152 -568T69 -649H56Q43 -649 39 -647T35 -637Q65 -607 110 -548Q283 -316 316 56Q324 133 324 251Q324 368 316 445Q278 877 48 1123Q36 1137 35 1138Z"></path>
</defs>
<g stroke="currentColor" fill="currentColor" stroke-width="0" transform="matrix(1 0 0 -1 0 0)">
 <use xlink:href="#E1-MJMAINI-48"></use>
 <use xlink:href="#E1-MJMAINI-4D" x="748" y="0"></use>
 <use xlink:href="#E1-MJMAINI-41" x="1650" y="0"></use>
 <use xlink:href="#E1-MJMAINI-43" x="2398" y="0"></use>
 <use xlink:href="#E1-MJMAIN-28" x="3119" y="0"></use>
 <use xlink:href="#E1-MJMATHI-4B" x="3513" y="0"></use>
 <use xlink:href="#E1-MJMAIN-2C" x="4407" y="0"></use>
 <use xlink:href="#E1-MJMATHI-6D" x="4856" y="0"></use>
 <use xlink:href="#E1-MJMAIN-29" x="5739" y="0"></use>
 <use xlink:href="#E1-MJMAIN-3D" x="6411" y="0"></use>
 <use xlink:href="#E1-MJMATHI-48" x="7472" y="0"></use>
 <use xlink:href="#E1-MJSZ2-28" x="8365" y="-1"></use>
 <use xlink:href="#E1-MJMAIN-28" x="8967" y="0"></use>
<g transform="translate(9361,0)">
 <use xlink:href="#E1-MJMATHI-4B" x="0" y="0"></use>
 <use transform="scale(0.707)" xlink:href="#E1-MJMAIN-2032" x="1281" y="583"></use>
</g>
 <use xlink:href="#E1-MJMAIN-2295" x="10787" y="0"></use>
 <use xlink:href="#E1-MJMATHI-6F" x="11792" y="0"></use>
 <use xlink:href="#E1-MJMATHI-70" x="12282" y="0"></use>
 <use xlink:href="#E1-MJMATHI-61" x="12790" y="0"></use>
 <use xlink:href="#E1-MJMATHI-64" x="13324" y="0"></use>
 <use xlink:href="#E1-MJMAIN-29" x="13852" y="0"></use>
 <use xlink:href="#E1-MJMAIN-7C" x="14524" y="0"></use>
 <use xlink:href="#E1-MJMAIN-7C" x="14807" y="0"></use>
 <use xlink:href="#E1-MJMATHI-48" x="15368" y="0"></use>
 <use xlink:href="#E1-MJSZ1-28" x="16261" y="-1"></use>
 <use xlink:href="#E1-MJMAIN-28" x="16724" y="0"></use>
<g transform="translate(17118,0)">
 <use xlink:href="#E1-MJMATHI-4B" x="0" y="0"></use>
 <use transform="scale(0.707)" xlink:href="#E1-MJMAIN-2032" x="1281" y="583"></use>
</g>
 <use xlink:href="#E1-MJMAIN-2295" x="18544" y="0"></use>
 <use xlink:href="#E1-MJMATHI-69" x="19549" y="0"></use>
 <use xlink:href="#E1-MJMATHI-70" x="19899" y="0"></use>
 <use xlink:href="#E1-MJMATHI-61" x="20407" y="0"></use>
 <use xlink:href="#E1-MJMATHI-64" x="20941" y="0"></use>
 <use xlink:href="#E1-MJMAIN-29" x="21469" y="0"></use>
 <use xlink:href="#E1-MJMAIN-7C" x="22141" y="0"></use>
 <use xlink:href="#E1-MJMAIN-7C" x="22424" y="0"></use>
 <use xlink:href="#E1-MJMATHI-6D" x="22985" y="0"></use>
 <use xlink:href="#E1-MJSZ1-29" x="23868" y="-1"></use>
 <use xlink:href="#E1-MJSZ2-29" x="24331" y="-1"></use>
</g>
</svg>